<svg width="14" height="14" viewBox="0 0 14 14" fill="none" xmlns="http://www.w3.org/2000/svg">
<path d="M7.65297 5.66666H6.31364V6.99999H7.65297V5.66666Z" fill="white"/>
<path fill-rule="evenodd" clip-rule="evenodd" d="M4.14144 0.666656C4.14144 0.390514 4.3653 0.166656 4.64144 0.166656H9.31898C9.59513 0.166656 9.81898 0.390514 9.81898 0.666656V2.49999H13.3267C13.6054 2.49999 13.8333 2.72575 13.8333 3.00666V5.88864L13.81 5.96228C13.674 6.39219 13.4501 6.78036 13.1607 7.12725V13.3333C13.1607 13.6095 12.9368 13.8333 12.6607 13.8333H1.30094C1.0248 13.8333 0.800944 13.6095 0.800944 13.3333V7.02936C0.56123 6.72062 0.3592 6.37889 0.203504 6.00254L0.165527 5.91075V3.00666C0.165527 2.72576 0.393451 2.49999 0.67221 2.49999H4.14144V0.666656ZM5.14144 2.49999H8.81898V1.16666H5.14144V2.49999ZM1.80094 7.99319V12.8333H12.1607V8.016C11.9007 8.19221 11.6215 8.35075 11.3296 8.49175C10.1584 9.0575 8.71688 9.37509 7.26839 9.42314C5.81986 9.47119 4.33113 9.25077 3.06811 8.70878C2.61541 8.51451 2.18778 8.27697 1.80094 7.99319ZM1.16553 5.7085V3.49999H12.8333V5.72998C12.573 6.46379 11.8954 7.1079 10.8947 7.5913C9.8706 8.08598 8.57047 8.3794 7.23524 8.42369C5.90003 8.46798 4.56297 8.26208 3.46246 7.78982C2.3971 7.33265 1.58232 6.64036 1.16553 5.7085Z" fill="white"/>
</svg>
