<svg width="91" height="108" viewBox="0 0 91 108" fill="none" xmlns="http://www.w3.org/2000/svg">
<path fill-rule="evenodd" clip-rule="evenodd" d="M71.241 9.03251L70.7067 75.0396L58.006 80.7594L58.1471 43.3527H32.4165L32.4871 80.1885L19.5788 74.4367L19.4897 9.06746L32.4116 14.8489V30.436H58.1546L58.1417 14.9283L71.241 9.03251ZM63.1751 18.1796L63.1894 35.4667H27.3809V18.1094L24.531 16.8343L24.605 71.1688L27.4415 72.4327L27.3761 38.322H63.1969L63.0661 72.9632L65.7022 71.776L66.1469 16.8421L63.1751 18.1796Z" fill="#3B5EAB"/>
<path d="M68.2045 73.4078L60.536 76.8613L60.672 40.8373H29.9031L29.9711 76.3106L22.0919 72.8027L22.0103 12.9509L29.9031 16.4724V32.9445H60.672L60.6652 16.554L68.6939 12.9373L68.2045 73.4078Z" fill="#3B5EAB"/>
<path d="M13.6645 6.09124V78.8666L45.2968 92.7554L77.0243 78.8462L77.0922 6.27479L90.7091 0.326316L90.6276 87.7587L45.2968 107.63L42.5775 106.44L0 87.7451V0L13.6645 6.09124Z" fill="#3B5EAB"/>
<path fill-rule="evenodd" clip-rule="evenodd" d="M38.5074 48.6451H52.1991V94.6625H38.5074V48.6451ZM39.8875 50.0252V93.2825H50.8191V50.0252H39.8875Z" fill="#3B5EAB"/>
<path d="M51.5091 49.3352H39.1975V93.9725H51.5091V49.3352Z" fill="#3B5EAB"/>
</svg>
