<svg width="21" height="21" viewBox="0 0 21 21" fill="none" xmlns="http://www.w3.org/2000/svg">
<g clip-path="url(#clip0_196_4641)">
<path d="M20 10.2002C20 4.67734 15.5229 0.200195 10 0.200195C4.47715 0.200195 0 4.67734 0 10.2002C0 15.1914 3.65684 19.3285 8.4375 20.0787V13.0908H5.89844V10.2002H8.4375V7.99707C8.4375 5.49082 9.93047 4.10645 12.2146 4.10645C13.3084 4.10645 14.4531 4.30176 14.4531 4.30176V6.7627H13.1922C11.95 6.7627 11.5625 7.53359 11.5625 8.3252V10.2002H14.3359L13.8926 13.0908H11.5625V20.0787C16.3432 19.3285 20 15.1914 20 10.2002Z" fill="white"/>
</g>
<defs>
<clipPath id="clip0_196_4641">
<rect width="20" height="20" fill="white" transform="translate(0 0.200195)"/>
</clipPath>
</defs>
</svg>
