<svg width="21" height="21" viewBox="0 0 21 21" fill="none" xmlns="http://www.w3.org/2000/svg">
<path fill-rule="evenodd" clip-rule="evenodd" d="M10.3808 1.6582C12.2064 1.65819 13.6403 1.65818 14.7598 1.8087C15.907 1.96294 16.8172 2.28547 17.5324 3.00063C18.2476 3.7158 18.5701 4.62601 18.7243 5.77322C18.8749 6.89273 18.8748 8.32662 18.8748 10.1522V10.2475C18.8748 12.0731 18.8749 13.507 18.7243 14.6265C18.5701 15.7737 18.2476 16.6839 17.5324 17.3991C16.8172 18.1143 15.907 18.4368 14.7598 18.591C13.6403 18.7416 12.2064 18.7415 10.3808 18.7415H10.2855C8.45995 18.7415 7.02603 18.7416 5.90652 18.591C4.75931 18.4368 3.8491 18.1143 3.13393 17.3991C2.41877 16.6839 2.09624 15.7737 1.942 14.6265C1.79148 13.507 1.79149 12.0731 1.7915 10.2475V10.1522C1.79149 8.32664 1.79148 6.89274 1.942 5.77322C2.09624 4.62601 2.41877 3.7158 3.13393 3.00063C3.8491 2.28547 4.75931 1.96294 5.90652 1.8087C7.02603 1.65818 8.45992 1.65819 10.2855 1.6582H10.3808ZM14.0832 10.1999C14.0832 12.2709 12.4042 13.9499 10.3332 13.9499C8.2621 13.9499 6.58317 12.2709 6.58317 10.1999C6.58317 8.1288 8.2621 6.44987 10.3332 6.44987C12.4042 6.44987 14.0832 8.1288 14.0832 10.1999ZM14.9267 6.44987C15.3849 6.44987 15.7563 6.07677 15.7563 5.61654C15.7563 5.1563 15.3849 4.7832 14.9267 4.7832H14.9193C14.4611 4.7832 14.0897 5.1563 14.0897 5.61654C14.0897 6.07677 14.4611 6.44987 14.9193 6.44987H14.9267Z" fill="white"/>
</svg>
