<svg width="21" height="21" viewBox="0 0 21 21" fill="none" xmlns="http://www.w3.org/2000/svg">
<path d="M15 2.2002H5.66658C3.82592 2.2002 2.33325 3.69287 2.33325 5.53353V14.8669C2.33325 16.7075 3.82592 18.2002 5.66658 18.2002H15C16.8413 18.2002 18.3333 16.7075 18.3333 14.8669V5.53353C18.3333 3.69287 16.8413 2.2002 15 2.2002ZM7.66658 14.8669H5.66658V7.53353H7.66658V14.8669ZM6.66658 6.6882C6.02258 6.6882 5.49992 6.16153 5.49992 5.5122C5.49992 4.86286 6.02258 4.3362 6.66658 4.3362C7.31058 4.3362 7.83325 4.86286 7.83325 5.5122C7.83325 6.16153 7.31125 6.6882 6.66658 6.6882ZM15.6666 14.8669H13.6666V11.1309C13.6666 8.88553 11 9.05553 11 11.1309V14.8669H8.99992V7.53353H11V8.7102C11.9306 6.9862 15.6666 6.85887 15.6666 10.3609V14.8669Z" fill="white"/>
</svg>
