<svg width="11" height="12" viewBox="0 0 11 12" fill="none" xmlns="http://www.w3.org/2000/svg">
<path d="M8.39032 8.18442L7.53534 8.56947L7.5505 4.55304H4.11922L4.1268 8.50807L3.24909 8.11697L3.23999 1.4439L4.11922 1.83728V3.67381H7.5505L7.54898 1.84562L8.44489 1.44238L8.39032 8.18442Z" stroke="white" stroke-width="0.560889" stroke-miterlimit="22.93"/>
<path d="M8.39032 8.18442L7.53534 8.56947L7.5505 4.55304H4.11998L4.12756 8.50807L3.24909 8.11697L3.23999 1.4439L4.11998 1.83652V3.67305H7.5505L7.54974 1.84562L8.44489 1.44238L8.39032 8.18442Z" fill="white"/>
<path d="M2.30914 0.679131V8.79308L5.83592 10.3416L9.37332 8.7908L9.38089 0.699596L10.1396 0.368368L10.8991 0.036382L10.89 9.28802V9.78449L10.4352 9.98383L6.13911 11.8674L5.83592 12L5.53274 11.8674L1.24421 9.98459L0.785645 9.78297V9.28802V0L2.30914 0.679131Z" fill="white"/>
<path d="M6.52867 5.50049H5.15601V10.4772H6.52867V5.50049Z" stroke="white" stroke-width="0.153866" stroke-miterlimit="22.93"/>
<path d="M6.52867 5.50049H5.15601V10.4772H6.52867V5.50049Z" fill="white"/>
</svg>
