<svg width="16" height="16" viewBox="0 0 16 16" fill="none" xmlns="http://www.w3.org/2000/svg">
<path fill-rule="evenodd" clip-rule="evenodd" d="M0.666626 14.5047H11.3206L11.3193 14.504C11.4993 14.504 11.6673 14.4074 11.758 14.2514C11.8486 14.096 11.8493 13.902 11.76 13.7454L11.7513 13.7307L8.20822 8.41708C8.49565 8.07745 9.15419 7.83545 9.84071 7.83545C10.4714 7.83545 11.0727 8.09944 11.4907 8.55944C11.86 8.9661 12.036 9.47278 11.9867 9.98545C11.9674 10.1808 11.9167 10.3714 11.836 10.5528L12.7494 10.9594C12.8047 10.8348 12.8514 10.7068 12.888 10.5768C13.2074 10.6481 13.5014 10.8041 13.7274 11.0294C14.01 11.3108 14.166 11.6761 14.166 12.0568C14.166 12.7328 13.6694 13.3348 12.9574 13.5214L13.211 14.4874C14.3622 14.1859 15.166 13.186 15.166 12.0561C15.166 11.4074 14.9054 10.7908 14.4327 10.3201C14.044 9.93278 13.5334 9.67344 12.9847 9.5761C12.9314 8.95944 12.6727 8.37345 12.2307 7.88678C11.624 7.21811 10.7527 6.83478 9.84071 6.83478C9.08571 6.83478 8.20986 7.06555 7.64243 7.56855L3.75396 1.73069C3.65996 1.58936 3.50196 1.5047 3.33263 1.5047L3.05995 1.50804L0.771297 4.94202L1.53129 6.84336C1.62862 7.09336 1.90729 7.22604 2.16462 7.14004L2.19862 7.12869L3.33329 6.56069L4.46796 7.12869L4.50196 7.14004C4.75929 7.22537 5.03796 7.09269 5.13529 6.84269L5.44262 6.0707L10.3993 13.5047H0.666626V14.5047ZM2.26262 5.97802L1.89529 5.05935L3.33329 2.90203L4.76863 5.05935L4.4033 5.97736L3.33329 5.44202L2.26262 5.97802Z" fill="white"/>
<path d="M7.08155 3.06748L6.24931 3.62189L7.58248 5.62316L8.41472 5.06875L7.08155 3.06748Z" fill="white"/>
</svg>
