<svg width="24" height="24" viewBox="0 0 24 24" fill="none" xmlns="http://www.w3.org/2000/svg">
<path fill-rule="evenodd" clip-rule="evenodd" d="M6.70538 3.30956C5.96088 3.42907 5.27507 3.72362 4.69039 4.14965L3.7769 3.22931L2.71229 4.28601L3.6326 5.21322C3.20635 5.80447 2.91231 6.49818 2.7937 7.25H1.5V8.75H2.7937C2.91106 9.49385 3.20011 10.1806 3.61857 10.7673C2.46998 11.82 1.75 13.3335 1.75 15.0152C1.75 17.2064 2.96604 18.6962 4.62633 19.6503L5.37367 18.3497C4.04496 17.5862 3.25 16.5309 3.25 15.0152C3.25 12.801 4.93728 10.9822 7.09158 10.7769C7.2258 10.7641 7.36203 10.7576 7.5 10.7576C8.27513 10.7576 8.99973 10.9648 9.62403 11.3265L10.376 10.0285C9.64139 9.60297 8.804 9.33546 7.91172 9.27214C8.45496 7.24317 10.3043 5.75 12.5 5.75C15.1223 5.75 17.25 7.87931 17.25 10.5083C17.25 10.6547 17.2434 10.7993 17.2306 10.9419C17.1597 11.7302 16.897 12.4624 16.4892 13.0926L17.7486 13.9074C18.1564 13.2772 18.4542 12.5686 18.6146 11.8093C20.3926 12.1031 21.75 13.6499 21.75 15.5159C21.75 16.8391 20.9663 17.6838 19.6669 18.3281L20.3331 19.6719C21.8852 18.9024 23.25 17.6492 23.25 15.5159C23.25 12.8675 21.2934 10.675 18.747 10.3119C18.6434 6.94741 15.8872 4.25 12.5 4.25C11.8634 4.25 11.2491 4.34526 10.6706 4.52232C10.0017 3.89601 9.15058 3.46165 8.20538 3.30968V2H6.70538V3.30956ZM6.35283 9.3723C5.82034 9.48029 5.31461 9.66188 4.84666 9.90601C4.46184 9.37071 4.23513 8.71264 4.23513 8C4.23513 6.19979 5.68215 4.75 7.45538 4.75C8.0728 4.75 8.64995 4.92506 9.14067 5.22988C7.70648 6.14705 6.67129 7.63426 6.35283 9.3723Z" fill="white"/>
<path fill-rule="evenodd" clip-rule="evenodd" d="M14.1004 13.5358L12.5775 11.9541L10.8858 13.4963L10.8707 13.5118C10.036 14.3656 10.0363 15.7377 10.9131 16.5899C11.3423 17.007 11.9464 17.25 12.5434 17.25C13.1433 17.25 13.6484 17.0339 14.0616 16.6726L14.0764 16.6596L14.0905 16.6459C14.9665 15.7946 14.9698 14.3913 14.1004 13.5358ZM11.9585 15.5142C11.6873 15.2506 11.6832 14.8398 11.9311 14.5731L12.5093 14.046L13.0362 14.5932L13.0451 14.6019C13.3139 14.8631 13.3182 15.2906 13.0582 15.5571C12.9005 15.6902 12.7435 15.75 12.5434 15.75C12.3338 15.75 12.1056 15.6571 11.9585 15.5142Z" fill="white"/>
<path fill-rule="evenodd" clip-rule="evenodd" d="M10.6004 19.0358L9.07753 17.4541L7.38578 18.9963L7.37068 19.0118C6.53602 19.8656 6.53631 21.2377 7.41314 22.0899C7.84229 22.507 8.44636 22.75 9.04344 22.75C9.64333 22.75 10.1484 22.5339 10.5616 22.1726L10.5764 22.1596L10.5905 22.1459C11.4665 21.2946 11.4698 19.8913 10.6004 19.0358ZM8.45855 21.0142C8.18733 20.7506 8.18324 20.3398 8.43109 20.0731L9.00935 19.546L9.53618 20.0932L9.54512 20.1019C9.81385 20.3631 9.81821 20.7906 9.5582 21.0571C9.40052 21.1902 9.24355 21.25 9.04344 21.25C8.83381 21.25 8.60562 21.1571 8.45855 21.0142Z" fill="white"/>
<path fill-rule="evenodd" clip-rule="evenodd" d="M17.6004 19.0358L16.0775 17.4541L14.3858 18.9963L14.3707 19.0118C13.536 19.8656 13.5363 21.2377 14.4131 22.0899C14.8423 22.507 15.4464 22.75 16.0434 22.75C16.6433 22.75 17.1484 22.5339 17.5616 22.1726L17.5764 22.1596L17.5905 22.1459C18.4665 21.2946 18.4698 19.8913 17.6004 19.0358ZM15.4585 21.0142C15.1873 20.7506 15.1832 20.3398 15.4311 20.0731L16.0093 19.546L16.5362 20.0932L16.5451 20.1019C16.8139 20.3631 16.8182 20.7906 16.5582 21.0571C16.4005 21.1902 16.2435 21.25 16.0434 21.25C15.8338 21.25 15.6056 21.1571 15.4585 21.0142Z" fill="white"/>
</svg>
