<svg width="29" height="29" viewBox="0 0 29 29" fill="none" xmlns="http://www.w3.org/2000/svg">
<path d="M7.9908 13.3334H10.6694V16H7.9908V13.3334Z" fill="white"/>
<path d="M13.3181 13.3334H15.9968V16H13.3181V13.3334Z" fill="white"/>
<path d="M21.3242 13.3334H18.6455V16H21.3242V13.3334Z" fill="white"/>
<path fill-rule="evenodd" clip-rule="evenodd" d="M0.333252 14.0044C0.333252 6.40663 6.7979 0.333374 14.6637 0.333374C22.5294 0.333374 28.9941 6.40663 28.9941 14.0044C28.9941 21.6022 22.5294 27.6755 14.6637 27.6755C12.7874 27.6755 10.9926 27.3311 9.3467 26.7034L4.43162 28.9088C3.65136 29.259 2.81514 28.5446 3.03882 27.719L4.22223 23.3508C1.84167 20.8715 0.333252 17.6718 0.333252 14.0044ZM14.6637 2.33393C7.80507 2.33393 2.33326 7.60647 2.33326 14.0044C2.33326 17.2647 3.74223 20.1215 6.03335 22.3348L6.4584 22.7455L5.5142 26.2304L9.3085 24.5279L9.70752 24.6939C11.2221 25.324 12.8979 25.675 14.6637 25.675C21.5222 25.675 26.9941 20.4023 26.9941 14.0044C26.9941 7.60647 21.5222 2.33393 14.6637 2.33393Z" fill="white"/>
</svg>
