<svg width="22" height="23" viewBox="0 0 22 23" fill="none" xmlns="http://www.w3.org/2000/svg">
<path d="M11.75 11.1893V6.5H10.25V11.8107L12.9697 14.5303L14.0303 13.4697L11.75 11.1893Z" fill="#3B5EAB"/>
<path fill-rule="evenodd" clip-rule="evenodd" d="M11 0.75C5.06294 0.75 0.25 5.56294 0.25 11.5C0.25 17.4371 5.06294 22.25 11 22.25C16.9371 22.25 21.75 17.4371 21.75 11.5C21.75 5.56294 16.9371 0.75 11 0.75ZM1.75 11.5C1.75 6.39137 5.89137 2.25 11 2.25C16.1086 2.25 20.25 6.39137 20.25 11.5C20.25 16.6086 16.1086 20.75 11 20.75C5.89137 20.75 1.75 16.6086 1.75 11.5Z" fill="#3B5EAB"/>
</svg>
