<svg width="39" height="44" viewBox="0 0 39 44" fill="none" xmlns="http://www.w3.org/2000/svg">
<path fill-rule="evenodd" clip-rule="evenodd" d="M24 8C24 3.85786 27.3579 0.5 31.5 0.5C35.6421 0.5 39 3.85786 39 8C39 12.1421 35.6421 15.5 31.5 15.5C27.3579 15.5 24 12.1421 24 8ZM31.5 3.5C29.0147 3.5 27 5.51472 27 8C27 10.4853 29.0147 12.5 31.5 12.5C33.9853 12.5 36 10.4853 36 8C36 5.51472 33.9853 3.5 31.5 3.5Z" fill="#3B5EAB"/>
<path fill-rule="evenodd" clip-rule="evenodd" d="M0 36C0 31.8579 3.35786 28.5 7.5 28.5C11.6421 28.5 15 31.8579 15 36C15 40.1421 11.6421 43.5 7.5 43.5C3.35786 43.5 0 40.1421 0 36ZM7.5 31.5C5.01472 31.5 3 33.5147 3 36C3 38.4853 5.01472 40.5 7.5 40.5C9.98528 40.5 12 38.4853 12 36C12 33.5147 9.98528 31.5 7.5 31.5Z" fill="#3B5EAB"/>
<path d="M12.5 6.5C7.80558 6.5 4 10.3056 4 15C4 19.6944 7.80558 23.5 12.5 23.5H26.5C29.5376 23.5 32 25.9624 32 29C32 32.0376 29.5376 34.5 26.5 34.5H19.5V37.5H26.5C31.1944 37.5 35 33.6944 35 29C35 24.3056 31.1944 20.5 26.5 20.5H12.5C9.46243 20.5 7 18.0376 7 15C7 11.9624 9.46243 9.5 12.5 9.5H19.5V6.5H12.5Z" fill="#3B5EAB"/>
</svg>
