<svg width="27" height="20" viewBox="0 0 27 20" fill="none" xmlns="http://www.w3.org/2000/svg">
<path fill-rule="evenodd" clip-rule="evenodd" d="M0 0V20H26.6667V0H0Z" fill="#2E42A5"/>
<mask id="mask0_698_5021" style="mask-type:luminance" maskUnits="userSpaceOnUse" x="0" y="0" width="27" height="20">
<path fill-rule="evenodd" clip-rule="evenodd" d="M0 0V20H26.6667V0H0Z" fill="white"/>
</mask>
<g mask="url(#mask0_698_5021)">
<path d="M-2.96924 18.5712L2.89884 21.0529L26.7999 2.6982L29.8951 -0.989697L23.6201 -1.81916L13.8714 6.0904L6.02475 11.4196L-2.96924 18.5712Z" fill="white"/>
<path d="M-2.16504 20.3099L0.824474 21.7501L28.7845 -1.33234H24.5869L-2.16504 20.3099Z" fill="#F50100"/>
<path d="M29.6357 18.5712L23.7677 21.0529L-0.133364 2.6982L-3.22864 -0.989697L3.04642 -1.81916L12.7951 6.0904L20.6418 11.4196L29.6357 18.5712Z" fill="white"/>
<path d="M29.4355 19.8191L26.446 21.2592L14.5404 11.3765L11.0106 10.2723L-3.52644 -0.977062H0.671183L15.2 10.0053L19.0592 11.3293L29.4355 19.8191Z" fill="#F50100"/>
<mask id="path-7-inside-1_698_5021" fill="white">
<path fill-rule="evenodd" clip-rule="evenodd" d="M16.4822 -1.66667H10.1859V6.66666H-1.64355V13.3333H10.1859V21.6667H16.4822V13.3333H28.3564V6.66666H16.4822V-1.66667Z"/>
</mask>
<path fill-rule="evenodd" clip-rule="evenodd" d="M16.4822 -1.66667H10.1859V6.66666H-1.64355V13.3333H10.1859V21.6667H16.4822V13.3333H28.3564V6.66666H16.4822V-1.66667Z" fill="#F50100"/>
<path d="M10.1859 -1.66667V-3.33334H8.51921V-1.66667H10.1859ZM16.4822 -1.66667H18.1488V-3.33334H16.4822V-1.66667ZM10.1859 6.66666V8.33333H11.8525V6.66666H10.1859ZM-1.64355 6.66666V4.99999H-3.31022V6.66666H-1.64355ZM-1.64355 13.3333H-3.31022V15H-1.64355V13.3333ZM10.1859 13.3333H11.8525V11.6667H10.1859V13.3333ZM10.1859 21.6667H8.51921V23.3333H10.1859V21.6667ZM16.4822 21.6667V23.3333H18.1488V21.6667H16.4822ZM16.4822 13.3333V11.6667H14.8155V13.3333H16.4822ZM28.3564 13.3333V15H30.0231V13.3333H28.3564ZM28.3564 6.66666H30.0231V4.99999H28.3564V6.66666ZM16.4822 6.66666H14.8155V8.33333H16.4822V6.66666ZM10.1859 -5.126e-06H16.4822V-3.33334H10.1859V-5.126e-06ZM11.8525 6.66666V-1.66667H8.51921V6.66666H11.8525ZM-1.64355 8.33333H10.1859V4.99999H-1.64355V8.33333ZM0.0231119 13.3333V6.66666H-3.31022V13.3333H0.0231119ZM10.1859 11.6667H-1.64355V15H10.1859V11.6667ZM11.8525 21.6667V13.3333H8.51921V21.6667H11.8525ZM16.4822 20H10.1859V23.3333H16.4822V20ZM14.8155 13.3333V21.6667H18.1488V13.3333H14.8155ZM28.3564 11.6667H16.4822V15H28.3564V11.6667ZM26.6898 6.66666V13.3333H30.0231V6.66666H26.6898ZM16.4822 8.33333H28.3564V4.99999H16.4822V8.33333ZM14.8155 -1.66667V6.66666H18.1488V-1.66667H14.8155Z" fill="white" mask="url(#path-7-inside-1_698_5021)"/>
</g>
</svg>
