<svg width="16" height="22" viewBox="0 0 16 22" fill="none" xmlns="http://www.w3.org/2000/svg">
<path fill-rule="evenodd" clip-rule="evenodd" d="M14.9319 11.8723C17.4222 6.7442 13.951 0.234755 7.99287 0.250027C2.19968 0.242638 -1.33521 6.51975 0.962352 11.6028C1.37653 12.5375 1.97146 13.3944 2.56478 14.1628C2.83956 14.5187 3.1202 14.8634 3.38565 15.1895L3.45192 15.2709C3.73964 15.6244 4.00619 15.9538 4.24231 16.2691L4.25516 16.2857C4.7953 16.9663 5.45004 17.8176 6.02666 18.7006C6.61025 19.5944 7.08023 20.4708 7.28896 21.2051C7.3806 21.5275 7.67504 21.7499 8.01021 21.75C8.34538 21.7501 8.63992 21.5278 8.7317 21.2054C8.99312 20.2873 9.57115 19.2437 10.286 18.1986C10.994 17.1636 11.8031 16.1742 12.4888 15.3641C13.4052 14.2935 14.2159 13.1383 14.9097 11.9145C14.9175 11.9006 14.9249 11.8866 14.9319 11.8723ZM13.939 6.25984C14.429 7.81559 14.3732 9.57465 13.5928 11.1959C12.9489 12.3286 12.1972 13.3982 11.348 14.3902L11.3453 14.3934C10.6501 15.2146 9.80059 16.2514 9.04792 17.3518C8.6698 17.9045 8.3074 18.4857 7.99926 19.0742C7.77923 18.6678 7.53422 18.2659 7.28263 17.8806C6.85091 17.2194 6.38275 16.5817 5.95234 16.0213L13.939 6.25984ZM13.2456 4.73855C12.568 3.63576 11.579 2.73926 10.3707 2.22499L8.23723 4.75848C9.67726 4.86206 10.8575 5.90387 11.1697 7.27576L13.2456 4.73855ZM8.77081 1.79614C8.51828 1.76503 8.25963 1.7493 7.99542 1.75003L7.99224 1.75003C6.26335 1.74748 4.76352 2.46248 3.66738 3.57932L5.78391 5.34309L8.77081 1.79614ZM2.74543 4.76359L4.81769 6.49047L1.94839 9.89777C1.4927 8.10319 1.83739 6.24896 2.74543 4.76359ZM2.5736 11.484C2.89458 12.0825 3.30503 12.6671 3.75208 13.2462C4.01445 13.586 4.28326 13.9162 4.55084 14.2448L4.61533 14.3241C4.74686 14.4857 4.87819 14.6474 5.00669 14.8083L7.91886 11.249C6.43092 11.2122 5.19114 10.1754 4.84619 8.78533L2.57437 11.4831C2.57412 11.4834 2.57386 11.4837 2.5736 11.484ZM6.60813 6.93998C6.60326 6.94668 6.59827 6.95332 6.59316 6.95991C6.37794 7.25067 6.25067 7.61047 6.25067 8C6.25067 8.9665 7.03417 9.75 8.00067 9.75C8.96717 9.75 9.75067 8.9665 9.75067 8C9.75067 7.0335 8.96717 6.25 8.00067 6.25C7.43265 6.25 6.92783 6.52063 6.60813 6.93998Z" fill="#010101"/>
</svg>
