<svg width="33" height="32" viewBox="0 0 33 32" fill="none" xmlns="http://www.w3.org/2000/svg">
<path d="M21.0339 19.3998C19.9985 20.7784 18.3532 21.667 16.5002 21.667C14.6472 21.667 13.0019 20.7784 11.9665 19.3998L10.3673 20.6009C11.7642 22.4608 13.9915 23.667 16.5002 23.667C19.0089 23.667 21.2362 22.4608 22.6331 20.6009L21.0339 19.3998Z" fill="white"/>
<path d="M19.6679 9.4454C19.6679 9.4454 19.668 9.44513 20.5001 9.99983C21.3321 10.5545 21.3323 10.5543 21.3323 10.5543L21.331 10.5562L21.3227 10.5689C21.3149 10.5809 21.3026 10.5999 21.2865 10.6252C21.2542 10.676 21.2067 10.7518 21.1492 10.8477C21.069 10.9815 20.9704 11.152 20.8665 11.3459C22.0132 11.2484 23.2 11.7108 23.9667 12.7332L22.3667 13.9332C21.7667 13.1332 20.5667 13.1332 19.9667 13.9332C19.7085 14.2775 19.2589 14.418 18.8505 14.2818C18.4422 14.1457 18.1667 13.7636 18.1667 13.3332C18.1667 12.4117 18.6017 11.3938 18.939 10.7193C19.1199 10.3574 19.2998 10.0428 19.4343 9.81866C19.5018 9.70616 19.5585 9.61533 19.5991 9.55149C19.6195 9.51954 19.6358 9.49427 19.6475 9.47634L19.6615 9.45501L19.6657 9.44861L19.6679 9.4454Z" fill="white"/>
<path d="M12.5001 9.99983C13.3321 9.44513 13.3323 9.4454 13.3323 9.4454L13.3344 9.44861L13.3387 9.45501L13.3527 9.47634C13.3644 9.49427 13.3807 9.51954 13.401 9.55149C13.4417 9.61533 13.4984 9.70616 13.5659 9.81866C13.7004 10.0428 13.8802 10.3574 14.0612 10.7193C14.3984 11.3938 14.8334 12.4117 14.8334 13.3332C14.8334 13.7636 14.558 14.1457 14.1496 14.2818C13.7413 14.418 13.2917 14.2775 13.0334 13.9332C12.4334 13.1332 11.2334 13.1332 10.6334 13.9332L9.03341 12.7332C9.80019 11.7108 10.9869 11.2484 12.1336 11.3459C12.0298 11.152 11.9312 10.9815 11.8509 10.8477C11.7934 10.7518 11.746 10.676 11.7137 10.6252C11.6976 10.5999 11.6853 10.5809 11.6774 10.5689L11.6691 10.5562L11.6679 10.5543C11.6679 10.5543 11.668 10.5545 12.5001 9.99983Z" fill="white"/>
<path fill-rule="evenodd" clip-rule="evenodd" d="M16.5001 1.66675C8.584 1.66675 2.16675 8.084 2.16675 16.0001C2.16675 23.9162 8.584 30.3334 16.5001 30.3334C24.4162 30.3334 30.8334 23.9162 30.8334 16.0001C30.8334 8.084 24.4162 1.66675 16.5001 1.66675ZM4.16675 16.0001C4.16675 9.18857 9.68857 3.66675 16.5001 3.66675C23.3116 3.66675 28.8334 9.18857 28.8334 16.0001C28.8334 22.8116 23.3116 28.3334 16.5001 28.3334C9.68857 28.3334 4.16675 22.8116 4.16675 16.0001Z" fill="white"/>
</svg>
