<svg width="24" height="21" viewBox="0 0 24 21" fill="none" xmlns="http://www.w3.org/2000/svg">
<path fill-rule="evenodd" clip-rule="evenodd" d="M13.1714 17.003H11.1705C8.40839 17.003 6.16846 14.763 6.16846 12.0009V10.0001C6.16846 6.68468 8.85558 3.99756 12.171 3.99756V3.99756C15.4863 3.99756 18.1735 6.68468 18.1735 10.0001V12.0009C18.1735 14.763 15.9335 17.003 13.1714 17.003Z" stroke="#3A3A3A" stroke-width="2" stroke-linecap="square" stroke-linejoin="round"/>
<path d="M17.1709 12.5H7.1709" stroke="#3A3A3A" stroke-width="2" stroke-linecap="square" stroke-linejoin="round"/>
<path d="M18.1735 19.0038L17.4331 17.8943C17.062 17.3371 16.4377 17.0029 15.7685 17.0029H8.57346C7.90418 17.0029 7.27992 17.3371 6.90877 17.8943L6.16846 19.0038" stroke="#3A3A3A" stroke-width="2" stroke-linecap="square" stroke-linejoin="round"/>
<path d="M1.6665 2.99718C7.46792 0.329066 16.8738 0.329066 22.6753 2.99718" stroke="#3A3A3A" stroke-width="2" stroke-linecap="square" stroke-linejoin="round"/>
<path d="M12.1709 12V1" stroke="#3A3A3A" stroke-width="2" stroke-linecap="square" stroke-linejoin="round"/>
</svg>
