<svg width="18" height="22" viewBox="0 0 18 22" fill="none" xmlns="http://www.w3.org/2000/svg">
<path fill-rule="evenodd" clip-rule="evenodd" d="M5.75 8C5.75 6.20507 7.20507 4.75 9 4.75C10.7949 4.75 12.25 6.20507 12.25 8C12.25 9.79493 10.7949 11.25 9 11.25C7.20507 11.25 5.75 9.79493 5.75 8ZM9 6.25C8.0335 6.25 7.25 7.0335 7.25 8C7.25 8.9665 8.0335 9.75 9 9.75C9.9665 9.75 10.75 8.9665 10.75 8C10.75 7.0335 9.9665 6.25 9 6.25Z" fill="white"/>
<path fill-rule="evenodd" clip-rule="evenodd" d="M8.68766 17.6819C8.68793 17.682 8.68818 17.6821 9 17L8.68766 17.6819L9 17.8247L9.31182 17.6821L9 17C9.31182 17.6821 9.31155 17.6822 9.31182 17.6821L9.31302 17.6816L9.31487 17.6807L9.32046 17.6781L9.33913 17.6694C9.35484 17.662 9.37702 17.6515 9.40525 17.6378C9.46169 17.6105 9.54236 17.5707 9.64379 17.5185C9.84655 17.4143 10.1329 17.2604 10.4751 17.0583C11.1578 16.6552 12.0712 16.0554 12.9881 15.2694C14.7997 13.7167 16.75 11.3269 16.75 8.2C16.75 3.82939 13.3 0.25 9 0.25C4.70002 0.25 1.25 3.82939 1.25 8.2C1.25 11.3269 3.20032 13.7167 5.01191 15.2694C5.92884 16.0554 6.84219 16.6552 7.52491 17.0583C7.86709 17.2604 8.15345 17.4143 8.35621 17.5185C8.45764 17.5707 8.53831 17.6105 8.59475 17.6378C8.61062 17.6455 8.62458 17.6522 8.63656 17.6579C8.64588 17.6623 8.654 17.6662 8.66087 17.6694L8.67954 17.6781L8.68513 17.6807L8.68766 17.6819ZM2.75 8.2C2.75 4.61771 5.568 1.75 9 1.75C12.432 1.75 15.25 4.61771 15.25 8.2C15.25 10.6731 13.7003 12.6833 12.0119 14.1306C11.1788 14.8446 10.3422 15.3948 9.71241 15.7667C9.42209 15.9381 9.17755 16.0706 9 16.1628C8.82245 16.0706 8.5779 15.9381 8.28759 15.7667C7.65781 15.3948 6.82116 14.8446 5.98809 14.1306C4.29968 12.6833 2.75 10.6731 2.75 8.2Z" fill="white"/>
<path d="M1.76162 18.7542C1.79151 18.7069 1.88771 18.5872 2.18658 18.4162C2.6165 18.1702 3.28549 17.9296 4.1647 17.7317L3.8353 16.2683C2.88559 16.4821 2.05457 16.7636 1.44172 17.1142C0.882533 17.4341 0.25 17.9625 0.25 18.7537C0.25 19.4506 0.745798 19.9421 1.21387 20.2529C1.71075 20.5828 2.3803 20.8507 3.14039 21.0641C4.671 21.4939 6.74243 21.75 9 21.75C11.2576 21.75 13.329 21.4939 14.8596 21.0641C15.6197 20.8507 16.2892 20.5828 16.7861 20.2529C17.2542 19.9421 17.75 19.4506 17.75 18.7537C17.75 17.9625 17.1175 17.4341 16.5583 17.1142C15.9454 16.7636 15.1144 16.4821 14.1647 16.2683L13.8353 17.7317C14.7145 17.9296 15.3835 18.1702 15.8134 18.4162C16.1123 18.5872 16.2085 18.7069 16.2384 18.7542C16.2126 18.7944 16.1421 18.88 15.9565 19.0032C15.6438 19.2108 15.1417 19.4269 14.4541 19.62C13.0893 20.0032 11.1607 20.25 9 20.25C6.83929 20.25 4.91072 20.0032 3.5459 19.62C2.85828 19.4269 2.35625 19.2108 2.04349 19.0032C1.85793 18.88 1.78736 18.7944 1.76162 18.7542Z" fill="white"/>
</svg>
