<svg width="34" height="36" viewBox="0 0 34 36" fill="none" xmlns="http://www.w3.org/2000/svg">
<path fill-rule="evenodd" clip-rule="evenodd" d="M17 0.083374C8.20752 0.083374 0.75 7.34927 0.75 16.2097C0.75 20.7471 2.66978 24.5402 5.36148 27.6708C8.04159 30.788 11.5306 33.3019 14.7971 35.324L14.8185 35.3373L14.8405 35.3497C15.4993 35.7216 16.2434 35.9167 17 35.9167C17.7566 35.9167 18.5007 35.7216 19.1595 35.3497L19.1786 35.3389L19.1974 35.3274C22.4758 33.3213 25.9654 30.7994 28.6444 27.673C31.3338 24.5343 33.25 20.7321 33.25 16.2097C33.25 7.34927 25.7925 0.083374 17 0.083374ZM17 9.66671C13.3181 9.66671 10.3333 12.6515 10.3333 16.3334C10.3333 20.0153 13.3181 23 17 23C20.6819 23 23.6667 20.0153 23.6667 16.3334C23.6667 12.6515 20.6819 9.66671 17 9.66671Z" fill="#3B5EAB"/>
</svg>
