<svg width="48" height="49" viewBox="0 0 48 49" fill="none" xmlns="http://www.w3.org/2000/svg">
<g clip-path="url(#clip0_149_2872)">
<path d="M48 24.2002C48 10.9454 37.2548 0.200195 24 0.200195C10.7452 0.200195 0 10.9454 0 24.2002C0 37.455 10.7452 48.2002 24 48.2002C37.2548 48.2002 48 37.455 48 24.2002Z" fill="#3B5EAB"/>
<mask id="mask0_149_2872" style="mask-type:luminance" maskUnits="userSpaceOnUse" x="12" y="12" width="24" height="25">
<path d="M36 12.2002H12V36.2002H36V12.2002Z" fill="white"/>
</mask>
<g mask="url(#mask0_149_2872)">
<path d="M15.7711 17.1793V14.8916C15.7711 14.6695 15.8184 14.4495 15.9103 14.2443C16.0022 14.0391 16.1368 13.8526 16.3066 13.6956C16.6494 13.3784 17.1144 13.2002 17.5992 13.2002H30.4008C30.8856 13.2002 31.3506 13.3784 31.6934 13.6956C32.0363 14.0128 32.2289 14.443 32.2289 14.8916V17.1793M21.2579 18.5358H26.7421M21.2579 22.7667H26.7421M22.518 29.0629L13 22.1508V33.0762C13 34.2494 14.0303 35.2002 15.2983 35.2002H32.7017C33.9697 35.2002 35 34.247 35 33.0738V22.1483L25.482 29.0653C25.0674 29.389 24.5424 29.5665 24 29.5665C23.4576 29.5665 22.9326 29.389 22.518 29.0653V29.0629Z" stroke="white" stroke-width="1.8" stroke-linecap="round" stroke-linejoin="round"/>
</g>
</g>
<defs>
<clipPath id="clip0_149_2872">
<rect width="48" height="48" fill="white" transform="translate(0 0.200195)"/>
</clipPath>
</defs>
</svg>
