<svg width="25" height="25" viewBox="0 0 25 25" fill="none" xmlns="http://www.w3.org/2000/svg">
<path fill-rule="evenodd" clip-rule="evenodd" d="M8.25 8.25C8.25 5.90279 10.1528 4 12.5 4C14.8472 4 16.75 5.90279 16.75 8.25C16.75 10.5972 14.8472 12.5 12.5 12.5C10.1528 12.5 8.25 10.5972 8.25 8.25ZM12.5 5.5C10.9812 5.5 9.75 6.73122 9.75 8.25C9.75 9.76878 10.9812 11 12.5 11C14.0188 11 15.25 9.76878 15.25 8.25C15.25 6.73122 14.0188 5.5 12.5 5.5Z" fill="#3A3A3A"/>
<path d="M7.49998 5.5C5.70506 5.5 4.24998 6.95507 4.24998 8.75C4.24998 10.5449 5.70506 12 7.49998 12V10.5C6.53348 10.5 5.74998 9.7165 5.74998 8.75C5.74998 7.7835 6.53348 7 7.49998 7V5.5Z" fill="#3A3A3A"/>
<path d="M7.5 13C4.32436 13 1.75 15.5744 1.75 18.75H3.25C3.25 16.4028 5.15279 14.5 7.5 14.5V13Z" fill="#3A3A3A"/>
<path d="M17.5 7C18.4665 7 19.25 7.7835 19.25 8.75C19.25 9.7165 18.4665 10.5 17.5 10.5V12C19.2949 12 20.75 10.5449 20.75 8.75C20.75 6.95507 19.2949 5.5 17.5 5.5V7Z" fill="#3A3A3A"/>
<path d="M17.5 14.5C19.8472 14.5 21.75 16.4028 21.75 18.75H23.25C23.25 15.5744 20.6756 13 17.5 13V14.5Z" fill="#3A3A3A"/>
<path fill-rule="evenodd" clip-rule="evenodd" d="M12.5 14C8.33242 14 4.75 16.9178 4.75 20.75V21.5H20.25V20.75C20.25 16.9178 16.6676 14 12.5 14ZM12.5 15.5C15.7414 15.5 18.256 17.53 18.6852 20H6.31483C6.74399 17.53 9.25862 15.5 12.5 15.5Z" fill="#3A3A3A"/>
</svg>
