<svg width="22" height="22" viewBox="0 0 22 22" fill="none" xmlns="http://www.w3.org/2000/svg">
<path fill-rule="evenodd" clip-rule="evenodd" d="M10.734 19.9531C12.035 20.6551 14.115 21.777 16.244 21.777L16.242 21.7781C17.172 21.7781 18.112 21.5641 18.999 21.0071C19.606 20.6261 21.083 19.294 21.621 18.495L21.641 18.463C21.757 18.271 21.782 18.0401 21.711 17.8281L21.596 17.494L21.304 17.377L14.838 14.127L10.941 18.349C8.89803 17.15 7.19503 15.563 6.24203 14.421L6.20804 14.383C5.14504 13.272 4.33302 12.179 3.71302 11.162L7.91202 7.20803L4.67904 0.700024C4.57504 0.493024 4.38705 0.347046 4.16105 0.297046L3.80504 0.222046L3.52604 0.443042C1.16404 2.31404 0.0150259 4.39603 0.289026 6.30603C0.496026 7.74103 1.37904 11.496 5.10704 15.401C6.10104 16.587 7.82804 18.205 9.90304 19.474L9.88405 19.494L10.734 19.9531ZM18.203 19.735C16.449 20.837 14.297 20.086 12.305 19.083L15.174 15.974L19.823 18.311C19.256 18.9 18.501 19.548 18.203 19.735ZM1.77303 6.09304C1.60603 4.93004 2.32104 3.54804 3.75704 2.21804L6.07303 6.87903L2.96903 9.80203C2.16303 8.14303 1.87503 6.80204 1.77303 6.09304Z" fill="#3B5EAB"/>
<path fill-rule="evenodd" clip-rule="evenodd" d="M12.7061 6.5532C13.9416 7.07802 14.9514 8.08752 15.4765 9.32297L16.8571 8.73718C16.1821 7.14718 14.883 5.84719 13.292 5.17219L12.7061 6.5532Z" fill="#3B5EAB"/>
<path d="M13.445 1.75217C16.715 2.69617 19.3341 5.31418 20.2781 8.58518L20.2791 8.58616L21.72 8.17019C20.634 4.40819 17.6231 1.39716 13.8611 0.311157L13.445 1.75217Z" fill="#3B5EAB"/>
</svg>
