<svg width="33" height="32" viewBox="0 0 33 32" fill="none" xmlns="http://www.w3.org/2000/svg">
<path fill-rule="evenodd" clip-rule="evenodd" d="M12.1663 12C12.1663 9.60679 14.1064 7.66669 16.4997 7.66669C18.8929 7.66669 20.833 9.60679 20.833 12C20.833 14.3933 18.8929 16.3334 16.4997 16.3334C14.1064 16.3334 12.1663 14.3933 12.1663 12ZM16.4997 9.66669C15.211 9.66669 14.1663 10.7114 14.1663 12C14.1663 13.2887 15.211 14.3334 16.4997 14.3334C17.7883 14.3334 18.833 13.2887 18.833 12C18.833 10.7114 17.7883 9.66669 16.4997 9.66669Z" fill="#3B5EAB"/>
<path fill-rule="evenodd" clip-rule="evenodd" d="M16.0832 24.9092C16.0836 24.9093 16.0839 24.9095 16.4997 24L16.0832 24.9092L16.4997 25.0996L16.9154 24.9095L16.4997 24C16.9154 24.9095 16.9151 24.9097 16.9154 24.9095L16.917 24.9088L16.9195 24.9076L16.927 24.9042L16.9518 24.8926C16.9728 24.8827 17.0024 24.8687 17.04 24.8505C17.1153 24.8141 17.2228 24.7609 17.3581 24.6914C17.6284 24.5524 18.0102 24.3472 18.4665 24.0778C19.3768 23.5403 20.5945 22.7405 21.8171 21.6926C24.2326 19.6222 26.833 16.4358 26.833 12.2667C26.833 6.43921 22.233 1.66669 16.4997 1.66669C10.7664 1.66669 6.16634 6.43921 6.16634 12.2667C6.16634 16.4358 8.76677 19.6222 11.1822 21.6926C12.4048 22.7405 13.6226 23.5403 14.5329 24.0778C14.9891 24.3472 15.3709 24.5524 15.6413 24.6914C15.7765 24.7609 15.8841 24.8141 15.9593 24.8505C15.9805 24.8607 15.9991 24.8696 16.0151 24.8772C16.0275 24.8831 16.0383 24.8883 16.0475 24.8926L16.0724 24.9042L16.0798 24.9076L16.0832 24.9092ZM8.16634 12.2667C8.16634 7.4903 11.9237 3.66669 16.4997 3.66669C21.0757 3.66669 24.833 7.4903 24.833 12.2667C24.833 15.5642 22.7668 18.2445 20.5155 20.1741C19.4048 21.1262 18.2893 21.8598 17.4496 22.3556C17.0625 22.5842 16.7364 22.7608 16.4997 22.8837C16.2629 22.7608 15.9369 22.5842 15.5498 22.3556C14.7101 21.8598 13.5945 21.1262 12.4838 20.1741C10.2326 18.2445 8.16634 15.5642 8.16634 12.2667Z" fill="#3B5EAB"/>
<path d="M6.8485 26.3389C6.88835 26.2759 7.01663 26.1162 7.41512 25.8883C7.98835 25.5603 8.88032 25.2395 10.0526 24.9756L9.61341 23.0244C8.34712 23.3095 7.2391 23.6848 6.42197 24.1523C5.67639 24.5788 4.83301 25.2833 4.83301 26.3382C4.83301 27.2675 5.49407 27.9229 6.11816 28.3372C6.78068 28.777 7.6734 29.1343 8.68686 29.4189C10.7277 29.9919 13.4896 30.3334 16.4997 30.3334C19.5098 30.3334 22.2717 29.9919 24.3125 29.4189C25.3259 29.1343 26.2187 28.777 26.8812 28.3372C27.5053 27.9229 28.1663 27.2675 28.1663 26.3382C28.1663 25.2833 27.323 24.5788 26.5774 24.1523C25.7602 23.6848 24.6522 23.3095 23.3859 23.0244L22.9467 24.9756C24.119 25.2395 25.011 25.5603 25.5842 25.8883C25.9827 26.1162 26.111 26.2759 26.1509 26.3389C26.1165 26.3926 26.0224 26.5067 25.775 26.6709C25.358 26.9478 24.6886 27.2359 23.7718 27.4933C21.952 28.0043 19.3806 28.3334 16.4997 28.3334C13.6187 28.3334 11.0473 28.0043 9.22754 27.4933C8.31071 27.2359 7.64134 26.9478 7.22433 26.6709C6.97691 26.5067 6.88283 26.3926 6.8485 26.3389Z" fill="#3B5EAB"/>
</svg>
