<svg width="33" height="32" viewBox="0 0 33 32" fill="none" xmlns="http://www.w3.org/2000/svg">
<path d="M5.83324 19.6667H9.57636L12.6846 21.3764C12.8323 21.4577 12.9981 21.5003 13.1666 21.5003H14.4999C15.5844 21.5003 16.3138 22.0901 16.6394 22.6771L13.8332 23.6124L10.1495 22.3845L9.51701 24.2819L13.517 25.6152C13.7223 25.6836 13.9442 25.6836 14.1495 25.6152L18.1495 24.2819C18.5405 24.1515 18.8096 23.7956 18.8318 23.3877L23.7632 21.7439C24.6003 21.4648 25.5099 21.8867 25.8377 22.706L25.8955 22.8505L15.065 28.2657L6.10545 25.7311L5.56104 27.6556L14.8935 30.2957C15.1333 30.3635 15.3899 30.3393 15.6129 30.2278L27.6129 24.2278C28.0781 23.9953 28.2873 23.4449 28.0941 22.962L27.6946 21.9633C26.9736 20.1607 24.9725 19.2326 23.1307 19.8465L18.2526 21.4726C17.5191 20.3447 16.1511 19.5003 14.4999 19.5003H13.4235L10.3152 17.7906C10.1675 17.7093 10.0018 17.6667 9.83324 17.6667H5.83324V19.6667Z" fill="white"/>
<path fill-rule="evenodd" clip-rule="evenodd" d="M16.9002 3.1652C16.9065 3.17943 16.9128 3.19498 16.9181 3.20844L18.1573 6.06428L20.3528 6.78754L20.3676 6.7933L20.3859 6.79944L20.387 6.79981C20.396 6.80274 20.4488 6.81991 20.5024 6.84697C20.5317 6.86179 20.5966 6.89648 20.6684 6.9615C20.7355 7.02214 20.8768 7.17015 20.9543 7.44337C21.0431 7.75621 20.998 8.04851 20.9266 8.24409C20.8718 8.39457 20.8009 8.49419 20.7604 8.54494L19.2588 10.6662L19.8498 14.0848C19.8566 14.1246 19.8737 14.229 19.8706 14.3624C19.8685 14.4558 19.8557 14.6465 19.769 14.8497C19.6658 15.0919 19.4928 15.268 19.2885 15.3358C19.1174 15.3926 18.9766 15.3563 18.9129 15.3353C18.8423 15.312 18.7877 15.2803 18.7604 15.2635C18.7303 15.245 18.7054 15.2271 18.6925 15.2177L18.6737 15.2037L16.2602 13.8583L13.7963 15.2196L13.787 15.2244C13.7763 15.2298 13.7674 15.2346 13.7584 15.2395C13.7514 15.2433 13.7442 15.2473 13.7363 15.2517L13.7221 15.2595C13.7118 15.2652 13.6906 15.2769 13.6676 15.2881C13.6489 15.2973 13.5973 15.3222 13.5316 15.339C13.477 15.3529 13.3142 15.3889 13.1233 15.2965C12.8858 15.1815 12.7456 14.9417 12.68 14.7301C12.6283 14.5633 12.6231 14.418 12.6216 14.3771C12.6198 14.3234 12.6212 14.2761 12.6217 14.2611C12.624 14.1883 12.6315 14.1192 12.6426 14.0549L13.2287 10.6582L11.7704 8.57835C11.7484 8.5516 11.7214 8.51617 11.6936 8.47271C11.6586 8.41808 11.575 8.2793 11.5298 8.06921C11.4745 7.81169 11.4825 7.44661 11.672 7.13447C11.8244 6.88355 12.017 6.80101 12.0993 6.77224L12.1103 6.76852L14.3469 6.03511L15.5802 3.21357C15.5855 3.20017 15.5921 3.1837 15.5982 3.16955C15.6074 3.14845 15.6431 3.06579 15.7052 2.97877C15.7618 2.89926 15.9434 2.67102 16.242 2.66669C16.5434 2.66232 16.7297 2.88879 16.7895 2.97085C16.8535 3.05877 16.8908 3.14378 16.9002 3.1652ZM15.3227 7.77475L16.248 5.65782L17.1784 7.80192L18.837 8.34832L17.6167 10.072L18.071 12.7L16.2627 11.6919L14.4132 12.7139L14.8694 10.0697L13.6459 8.32459L15.3227 7.77475Z" fill="white"/>
</svg>
