<svg width="24" height="24" viewBox="0 0 24 24" fill="none" xmlns="http://www.w3.org/2000/svg">
<path d="M1.25 12.8299C1.25 10.0783 3.23579 7.79961 5.85491 7.27748C6.39458 4.40787 8.94894 2.25 12 2.25C15.3699 2.25 18.1359 4.88423 18.2466 8.19998C20.7837 8.5566 22.75 10.7038 22.75 13.3214C22.75 15.1216 21.8169 16.7023 20.4123 17.6265L19.5877 16.3735C20.595 15.7107 21.25 14.5886 21.25 13.3214C21.25 11.5068 19.9005 9.98357 18.1124 9.69655C17.8987 10.6832 17.4454 11.5815 16.8171 12.3294L15.6686 11.3645C16.26 10.6606 16.643 9.78625 16.7307 8.82954C16.7435 8.69037 16.75 8.54926 16.75 8.40646C16.75 5.84684 14.6355 3.75 12 3.75C9.80162 3.75 7.96437 5.21019 7.41661 7.17963C8.54707 7.2595 9.58918 7.66182 10.4461 8.29465L9.55492 9.50126C8.84462 8.97667 7.96105 8.66496 7 8.66496C6.86159 8.66496 6.72492 8.67142 6.59028 8.68402C4.4251 8.88655 2.75 10.6757 2.75 12.8299C2.75 14.1866 3.41174 15.3952 4.44552 16.1586L3.55448 17.3652C2.15956 16.3352 1.25 14.6891 1.25 12.8299Z" fill="white"/>
<path d="M7.3291 14.6646L6.3291 16.6646L7.67074 17.3354L8.67074 15.3354L7.3291 14.6646Z" fill="white"/>
<path d="M11.8291 14.6646L10.8291 16.6646L12.1707 17.3354L13.1707 15.3354L11.8291 14.6646Z" fill="white"/>
<path d="M16.3291 14.6646L15.3291 16.6646L16.6707 17.3354L17.6707 15.3354L16.3291 14.6646Z" fill="white"/>
<path d="M8.3291 18.6646L7.3291 20.6646L8.67074 21.3354L9.67074 19.3354L8.3291 18.6646Z" fill="white"/>
<path d="M12.8291 18.6646L11.8291 20.6646L13.1707 21.3354L14.1707 19.3354L12.8291 18.6646Z" fill="white"/>
</svg>
