<svg width="25" height="25" viewBox="0 0 25 25" fill="none" xmlns="http://www.w3.org/2000/svg">
<path fill-rule="evenodd" clip-rule="evenodd" d="M5.5 3C7.31422 3 8.82753 4.28832 9.17499 6H10.3045C11.2923 6 12.0646 6 12.6522 6.03123C13.2227 6.06155 13.7349 6.12388 14.1351 6.3138C15.7294 7.0703 16.4287 8.9607 15.7106 10.5726C15.5303 10.9773 15.1819 11.3579 14.7685 11.7522C14.3427 12.1583 13.7565 12.6608 13.0066 13.3036L12.9881 13.3194C12.216 13.9813 11.6602 14.458 11.2667 14.8332C10.8574 15.2237 10.7085 15.4282 10.6596 15.5378C10.2729 16.4058 10.6495 17.4237 11.5079 17.831C11.6164 17.8825 11.8625 17.9409 12.4274 17.9709C12.9704 17.9997 13.7026 18 14.7195 18H15.825C16.1725 16.2883 17.6858 15 19.5 15C21.5711 15 23.25 16.6789 23.25 18.75C23.25 20.8211 21.5711 22.5 19.5 22.5C17.6858 22.5 16.1725 21.2117 15.825 19.5H14.6955C13.7077 19.5 12.9354 19.5 12.3478 19.4688C11.7773 19.4384 11.2651 19.3761 10.8649 19.1862C9.27063 18.4297 8.57132 16.5393 9.28943 14.9274C9.46971 14.5227 9.81808 14.1421 10.2315 13.7478C10.6573 13.3417 11.2436 12.8391 11.9936 12.1962L12.0119 12.1806C12.784 11.5187 13.3398 11.042 13.7333 10.6668C14.1426 10.2763 14.2915 10.0718 14.3404 9.96216C14.7271 9.09422 14.3505 8.07632 13.4921 7.66897C13.3836 7.61751 13.1375 7.55914 12.5726 7.52912C12.0296 7.50026 11.2974 7.5 10.2805 7.5H9.17499C8.82753 9.21168 7.31422 10.5 5.5 10.5C3.42893 10.5 1.75 8.82107 1.75 6.75C1.75 4.67893 3.42893 3 5.5 3ZM5.5 4.5C6.74264 4.5 7.75 5.50736 7.75 6.75C7.75 7.99264 6.74264 9 5.5 9C4.25736 9 3.25 7.99264 3.25 6.75C3.25 5.50736 4.25736 4.5 5.5 4.5ZM21.75 18.75C21.75 17.5074 20.7426 16.5 19.5 16.5C18.2574 16.5 17.25 17.5074 17.25 18.75C17.25 19.9926 18.2574 21 19.5 21C20.7426 21 21.75 19.9926 21.75 18.75Z" fill="#3A3A3A"/>
</svg>
