<svg width="33" height="32" viewBox="0 0 33 32" fill="none" xmlns="http://www.w3.org/2000/svg">
<path d="M15.1667 21.4142L23.8738 12.7071L22.4596 11.2929L15.1667 18.5858L13.2072 16.6262L11.793 18.0404L15.1667 21.4142Z" fill="white"/>
<path fill-rule="evenodd" clip-rule="evenodd" d="M28.5045 5.6461C26.3583 5.6461 24.7683 4.769 22.9647 3.7567L22.9088 3.72531C21.1555 2.74106 19.1786 1.63132 16.5266 1.67845C13.8758 1.68115 11.7737 2.82443 9.96027 3.81065L9.85395 3.86846C7.94872 4.90405 6.3817 5.72 4.50625 5.59215L3.63379 5.53268L3.45853 6.38941C2.09827 13.0385 3.03315 18.5203 5.49587 22.614C7.95796 26.7068 11.8941 29.3214 16.3573 30.3208L16.5885 30.3726L16.8184 30.3151C21.5951 29.1205 25.4786 26.433 27.804 22.3396C30.1246 18.2545 30.8275 12.8871 29.4834 6.44195L29.3175 5.6461H28.5045ZM16.5548 3.67827C18.6295 3.63928 20.1807 4.48761 21.9858 5.50076L22.0561 5.54022C23.6252 6.42117 25.3891 7.41145 27.675 7.61026C28.7354 13.3521 28.0023 17.9414 26.065 21.3517C24.0837 24.8394 20.7793 27.2074 16.5636 28.3157C12.6862 27.389 9.3251 25.0995 7.20966 21.5831C5.1464 18.1533 4.21957 13.4731 5.26393 7.59575C7.37794 7.49098 9.15388 6.52549 10.7506 5.65744L10.8091 5.62566C12.7059 4.59462 14.411 3.67845 16.536 3.67845L16.5548 3.67827Z" fill="white"/>
</svg>
