<svg width="22" height="23" viewBox="0 0 22 23" fill="none" xmlns="http://www.w3.org/2000/svg">
<path fill-rule="evenodd" clip-rule="evenodd" d="M0.999151 0.912863L3.99915 0.912862C4.3528 0.912861 4.6584 1.15991 4.7325 1.50572L5.46261 4.91286L6.99915 4.91286L6.99915 6.41286L5.78403 6.41286L7.58598 14.822L16.8556 13.4977L18.1059 6.41286L16.9992 6.41286L16.9992 4.91286L20.9992 4.91286L20.9992 6.41286L19.6291 6.41286L18.2383 14.2937C18.182 14.613 17.9268 14.8599 17.6058 14.9058L7.4315 16.3593L6.66739 17.4765C7.13317 17.8324 7.48186 18.3338 7.64563 18.9129L13.3527 18.9129C13.6791 17.7586 14.7404 16.9129 15.9992 16.9129C17.5179 16.9129 18.7492 18.1441 18.7492 19.6629C18.7492 21.1816 17.5179 22.4129 15.9992 22.4129C14.7404 22.4129 13.6791 21.5671 13.3527 20.4129L7.64564 20.4129C7.31917 21.5671 6.25793 22.4129 4.99915 22.4129C3.48037 22.4129 2.24915 21.1816 2.24915 19.6629C2.24915 18.1441 3.48037 16.9129 4.99915 16.9129C5.0766 16.9129 5.15329 16.9161 5.22911 16.9223L6.19834 15.5052L3.39284 2.41286L0.999151 2.41286L0.999151 0.912863ZM3.74915 19.6629C3.74915 18.9725 4.30879 18.4129 4.99915 18.4129C5.68951 18.4129 6.24915 18.9725 6.24915 19.6629C6.24915 20.3532 5.68951 20.9129 4.99915 20.9129C4.30879 20.9129 3.74915 20.3532 3.74915 19.6629ZM15.9992 18.4129C15.3088 18.4129 14.7492 18.9725 14.7492 19.6629C14.7492 20.3532 15.3088 20.9129 15.9992 20.9129C16.6895 20.9129 17.2492 20.3532 17.2492 19.6629C17.2492 18.9725 16.6895 18.4129 15.9992 18.4129Z" fill="white"/>
<path d="M12.7492 9.16286L12.7492 6.41286L15.4992 6.41286L15.4992 4.91286L12.7492 4.91286L12.7492 2.16286L11.2492 2.16286L11.2492 4.91286L8.49915 4.91286L8.49915 6.41286L11.2492 6.41286L11.2492 9.16286L12.7492 9.16286Z" fill="white"/>
</svg>
