<svg width="29" height="30" viewBox="0 0 29 30" fill="none" xmlns="http://www.w3.org/2000/svg">
<path d="M10.1835 3.44296C11.5256 2.94142 12.9797 2.66675 14.5001 2.66675C16.0205 2.66675 17.4746 2.94142 18.8167 3.44296L19.5168 1.5695C17.9541 0.98554 16.2631 0.666748 14.5001 0.666748C12.737 0.666748 11.0461 0.985542 9.48338 1.56949L10.1835 3.44296Z" fill="white"/>
<path d="M14.5001 27.3334C7.68857 27.3334 2.16675 21.8115 2.16675 15.0001H0.166748C0.166748 22.9161 6.58399 29.3334 14.5001 29.3334C22.4161 29.3334 28.8334 22.9161 28.8334 15.0001H26.8334C26.8334 21.8115 21.3115 27.3334 14.5001 27.3334Z" fill="white"/>
<path d="M8.36727 19.6009C9.76414 21.4607 11.9914 22.667 14.5002 22.667C17.009 22.667 19.2363 21.4607 20.6331 19.6009L19.0339 18.3998C17.9985 19.7784 16.3533 20.667 14.5002 20.667C12.6471 20.667 11.0019 19.7784 9.96643 18.3998L8.36727 19.6009Z" fill="white"/>
<path fill-rule="evenodd" clip-rule="evenodd" d="M8.71825 5.20023C8.71193 5.18839 8.70473 5.17532 8.69762 5.16321C8.68518 5.142 8.63546 5.05727 8.55007 4.96963C8.47011 4.88756 8.2221 4.66247 7.82163 4.66681C7.42478 4.67112 7.18313 4.89799 7.10731 4.97753C7.02463 5.06428 6.97695 5.14664 6.96486 5.16752C6.95808 5.17924 6.95066 5.19282 6.94457 5.20436L5.76762 7.21764L3.63363 7.74083L3.61898 7.74454C3.5157 7.77152 3.26249 7.85155 3.06099 8.09971C2.80932 8.40965 2.79853 8.77299 2.87206 9.02882C2.93182 9.23671 3.04204 9.37301 3.08679 9.42524C3.11942 9.46333 3.15101 9.4949 3.17761 9.51953L4.53703 10.9692L3.98141 13.3768C3.96698 13.4393 3.95722 13.5066 3.95425 13.5776C3.95372 13.5903 3.95183 13.6352 3.95425 13.6868C3.95609 13.726 3.96285 13.8702 4.03172 14.0363C4.11925 14.2473 4.30603 14.4857 4.62121 14.5998C4.87409 14.6914 5.08927 14.6555 5.1603 14.642C5.24608 14.6257 5.31271 14.6015 5.33512 14.5933C5.3629 14.5831 5.38789 14.5728 5.39849 14.5684L5.4144 14.5618C5.43181 14.5546 5.44216 14.5504 5.45791 14.5443L5.4703 14.5396L7.84207 13.5598L10.1478 14.5208L10.1558 14.5253C10.1706 14.5333 10.2013 14.5499 10.2391 14.5673C10.2733 14.583 10.3438 14.6138 10.4359 14.6364C10.5188 14.6569 10.7044 14.6928 10.9305 14.6367C11.2007 14.5697 11.4306 14.3951 11.568 14.1541C11.6833 13.952 11.7 13.7629 11.7028 13.6717C11.7069 13.5398 11.6843 13.437 11.6755 13.399L11.1153 10.9759L12.5187 9.49363C12.5724 9.44245 12.6627 9.34542 12.7333 9.20071C12.8284 9.00571 12.8888 8.71334 12.7701 8.4004C12.6666 8.12755 12.4782 7.98038 12.3899 7.92069C12.295 7.85652 12.2099 7.82253 12.1722 7.80834C12.1015 7.78164 12.0329 7.76532 12.0286 7.76431L12.0148 7.76082L11.9994 7.75635L9.90184 7.23969L8.71825 5.20023ZM10.1259 14.5086L10.1273 14.5094C10.1215 14.5064 10.1205 14.5057 10.1259 14.5086ZM7.82954 7.65342L7.06667 8.95838L5.706 9.29198L6.72572 10.3794L6.34878 12.0127L7.84549 11.3944L9.29943 12.0004L8.92487 10.3804L9.93952 9.30875L8.59851 8.97844L7.82954 7.65342Z" fill="white"/>
<path fill-rule="evenodd" clip-rule="evenodd" d="M22.031 5.16321C22.0381 5.17532 22.0453 5.18839 22.0516 5.20022L23.2352 7.23969L25.3327 7.75635L25.3481 7.76082L25.362 7.7643C25.3662 7.76532 25.4348 7.78164 25.5056 7.80834C25.5432 7.82253 25.6283 7.85652 25.7232 7.92069C25.8115 7.98038 26 8.12755 26.1035 8.4004C26.2222 8.71334 26.1617 9.0057 26.0666 9.20071C25.996 9.34543 25.9057 9.44245 25.852 9.49363L24.4486 10.9759L25.0089 13.399C25.0177 13.437 25.0402 13.5398 25.0362 13.6717C25.0334 13.7628 25.0167 13.952 24.9014 14.1541C24.7639 14.3951 24.5341 14.5697 24.2638 14.6367C24.0377 14.6928 23.8522 14.6569 23.7693 14.6364C23.6772 14.6138 23.6067 14.583 23.5725 14.5673C23.5346 14.5499 23.5039 14.5333 23.4892 14.5253L23.4812 14.5208L21.1754 13.5598L18.8036 14.5396L18.7912 14.5443C18.7755 14.5504 18.7652 14.5546 18.7478 14.5618L18.7318 14.5684C18.7212 14.5728 18.6962 14.5831 18.6685 14.5933C18.646 14.6015 18.5794 14.6257 18.4936 14.642C18.4226 14.6555 18.2074 14.6914 17.9545 14.5998C17.6394 14.4857 17.4526 14.2473 17.3651 14.0363C17.2962 13.8702 17.2894 13.726 17.2876 13.6868C17.2852 13.6352 17.2871 13.5903 17.2876 13.5776C17.2906 13.5066 17.3003 13.4393 17.3147 13.3768L17.8704 10.9692L16.5109 9.51953C16.4843 9.4949 16.4528 9.46333 16.4201 9.42524C16.3754 9.37301 16.2652 9.23671 16.2054 9.02882C16.1319 8.77299 16.1427 8.40965 16.3943 8.09971C16.5958 7.85155 16.849 7.77152 16.9523 7.74454L16.967 7.74083L19.101 7.21764L20.2779 5.20436C20.284 5.19282 20.2914 5.17924 20.2982 5.16752C20.3103 5.14664 20.358 5.06428 20.4406 4.97753C20.5165 4.89799 20.7581 4.67112 21.155 4.66681C21.5554 4.66247 21.8034 4.88756 21.8834 4.96963C21.9688 5.05727 22.0185 5.142 22.031 5.16321ZM23.4592 14.5086L23.4606 14.5094C23.4548 14.5064 23.4539 14.5057 23.4592 14.5086ZM20.4 8.95838L21.1629 7.65342L21.9318 8.97844L23.2728 9.30875L22.2582 10.3804L22.6328 12.0004L21.1788 11.3944L19.6821 12.0127L20.0591 10.3794L19.0393 9.29198L20.4 8.95838Z" fill="white"/>
</svg>
