<svg width="22" height="22" viewBox="0 0 22 22" fill="none" xmlns="http://www.w3.org/2000/svg">
<path fill-rule="evenodd" clip-rule="evenodd" d="M10.8322 13.884L12.8382 14.938C13.2282 15.143 13.6852 14.812 13.6102 14.377L13.2272 12.144L14.8502 10.564C15.1662 10.256 14.9922 9.719 14.5552 9.656L12.3132 9.33L11.3102 7.297C11.1152 6.901 10.5512 6.901 10.3552 7.297L9.35324 9.33L7.11124 9.656C6.67424 9.719 6.50024 10.256 6.81624 10.564L8.43924 12.144L8.05624 14.377C7.98124 14.812 8.43824 15.143 8.82824 14.938L10.8342 13.884H10.8322V13.884Z" stroke="#3A3A3A" stroke-width="2" stroke-linecap="square" stroke-linejoin="round"/>
<path d="M20.3333 11H19.2333" stroke="#3A3A3A" stroke-width="2" stroke-linecap="square" stroke-linejoin="round" stroke-dasharray="4 8 12 16"/>
<path d="M2.43325 11H1.33325" stroke="#3A3A3A" stroke-width="2" stroke-linecap="square" stroke-linejoin="round" stroke-dasharray="4 8 12 16"/>
<path d="M17.6933 4.13989L16.6433 5.18989" stroke="#3A3A3A" stroke-width="2" stroke-linecap="square" stroke-linejoin="round" stroke-dasharray="4 8 12 16"/>
<path d="M3.99329 17.8901L5.05329 16.8301" stroke="#3A3A3A" stroke-width="2" stroke-linecap="square" stroke-linejoin="round" stroke-dasharray="4 8 12 16"/>
<path d="M3.97327 4.15991L5.02327 5.21991" stroke="#3A3A3A" stroke-width="2" stroke-linecap="square" stroke-linejoin="round" stroke-dasharray="4 8 12 16"/>
<path d="M17.7232 17.8601L16.6632 16.8101" stroke="#3A3A3A" stroke-width="2" stroke-linecap="square" stroke-linejoin="round" stroke-dasharray="4 8 12 16"/>
<path d="M10.8333 19.4399V20.4999" stroke="#3A3A3A" stroke-width="2" stroke-linecap="square" stroke-linejoin="round" stroke-dasharray="4 8 12 16"/>
<path d="M10.8333 1.5V2.56" stroke="#3A3A3A" stroke-width="2" stroke-linecap="square" stroke-linejoin="round" stroke-dasharray="4 8 12 16"/>
</svg>
