<svg width="24" height="24" viewBox="0 0 24 24" fill="none" xmlns="http://www.w3.org/2000/svg">
<path d="M1.25 12.4954C1.25 9.80521 3.25463 7.60906 5.85888 7.10624C6.40948 4.31611 8.97546 2.25 12 2.25C15.3377 2.25 18.1218 4.77018 18.2457 7.99788C20.7654 8.34261 22.75 10.4081 22.75 12.9702C22.75 15.183 21.2624 17.0318 19.2386 17.711L18.7614 16.289C20.2332 15.795 21.25 14.4783 21.25 12.9702C21.25 11.2487 19.9156 9.76793 18.1082 9.49295C17.8915 10.4486 17.4362 11.3167 16.8087 12.0381L15.6769 11.0537C16.2658 10.3767 16.6443 9.53921 16.7309 8.62644C16.7435 8.49357 16.75 8.35884 16.75 8.22248C16.75 5.78852 14.6604 3.75 12 3.75C9.79736 3.75 7.98266 5.15026 7.42629 7.01262C8.54718 7.09126 9.58229 7.47762 10.4361 8.0867L9.56491 9.30781C8.85444 8.80095 7.96739 8.49771 7 8.49771C6.86079 8.49771 6.72334 8.50399 6.58792 8.51623C4.40213 8.71373 2.75 10.45 2.75 12.4954C2.75 13.7865 3.40167 14.946 4.4355 15.6833L3.5645 16.9045C2.16944 15.9096 1.25 14.311 1.25 12.4954Z" fill="white"/>
<path d="M9.72396 13.8832L8.43428 13.1172L5.68262 17.7502H8.68284L7.27742 20.1173L8.56721 20.8831L11.3179 16.2502H8.31813L9.72396 13.8832Z" fill="white"/>
<path d="M14.3291 20.1646L15.8291 17.1646L17.1707 17.8354L15.6707 20.8354L14.3291 20.1646Z" fill="white"/>
<path d="M12.8291 17.1646L11.3291 20.1646L12.6707 20.8354L14.1707 17.8354L12.8291 17.1646Z" fill="white"/>
</svg>
