<svg width="16" height="16" viewBox="0 0 16 16" fill="none" xmlns="http://www.w3.org/2000/svg">
<path d="M8.66982 1.33334H7.3305V2.66668H8.66982V1.33334Z" fill="#DEDEDE"/>
<path d="M12.912 3.09067H11.5727V4.424H12.912V3.09067Z" fill="#DEDEDE"/>
<path d="M4.42887 3.09099H3.08956V4.42433H4.42887V3.09099Z" fill="#DEDEDE"/>
<path d="M2.67281 7.33373H1.3335V8.66707H2.67281V7.33373Z" fill="#DEDEDE"/>
<path d="M14.6668 7.33373H13.3275V8.66707H14.6668V7.33373Z" fill="#DEDEDE"/>
<path d="M4.42887 11.576H3.08956V12.9094H4.42887V11.576Z" fill="#DEDEDE"/>
<path d="M12.9116 11.5763H11.5723V12.9097H12.9116V11.5763Z" fill="#DEDEDE"/>
<path d="M8.67021 13.3333H7.33089V14.6667H8.67021V13.3333Z" fill="#DEDEDE"/>
<path fill-rule="evenodd" clip-rule="evenodd" d="M8.00016 4.16668C5.88307 4.16668 4.16683 5.88292 4.16683 8.00001C4.16683 10.1171 5.88307 11.8333 8.00016 11.8333C10.1173 11.8333 11.8335 10.1171 11.8335 8.00001C11.8335 5.88292 10.1173 4.16668 8.00016 4.16668ZM5.16683 8.00001C5.16683 6.4352 6.43536 5.16668 8.00016 5.16668C9.56497 5.16668 10.8335 6.4352 10.8335 8.00001C10.8335 9.56482 9.56497 10.8333 8.00016 10.8333C6.43536 10.8333 5.16683 9.56482 5.16683 8.00001Z" fill="#DEDEDE"/>
</svg>
