<svg width="24" height="24" viewBox="0 0 24 24" fill="none" xmlns="http://www.w3.org/2000/svg">
<path fill-rule="evenodd" clip-rule="evenodd" d="M2.62973 9.14816C1.77885 8.31235 1.25 7.14624 1.25 5.85679C1.25 3.3149 3.30438 1.25 5.84388 1.25C7.23335 1.25 8.47789 1.86907 9.31907 2.84385C10.1324 2.46289 11.0417 2.25 12 2.25C15.3699 2.25 18.1359 4.88423 18.2466 8.19998C20.7837 8.5566 22.75 10.7038 22.75 13.3214C22.75 15.1216 21.8169 16.7023 20.4123 17.6265L19.5877 16.3735C20.595 15.7107 21.25 14.5886 21.25 13.3214C21.25 11.5068 19.9005 9.98357 18.1124 9.69655C17.8987 10.6832 17.4454 11.5815 16.8171 12.3294L15.6686 11.3645C16.26 10.6606 16.643 9.78625 16.7307 8.82954C16.7435 8.69037 16.75 8.54926 16.75 8.40646C16.75 5.84684 14.6355 3.75 12 3.75C9.80162 3.75 7.96437 5.21019 7.41661 7.17963C8.54707 7.2595 9.58918 7.66182 10.4461 8.29465L9.55492 9.50126C8.84462 8.97667 7.96105 8.66496 7 8.66496C6.86159 8.66496 6.72492 8.67142 6.59028 8.68402C4.4251 8.88655 2.75 10.6757 2.75 12.8299C2.75 14.1866 3.41174 15.3952 4.44552 16.1586L3.55448 17.3652C2.15956 16.3352 1.25 14.6891 1.25 12.8299C1.25 11.4213 1.77039 10.1367 2.62973 9.14816ZM2.75 5.85679C2.75 4.13858 4.13754 2.75 5.84388 2.75C6.6946 2.75 7.46584 3.09441 8.02619 3.65447C6.91747 4.55473 6.12808 5.82493 5.85491 7.27748C5.09076 7.42982 4.38052 7.73168 3.75778 8.15119C3.13787 7.5826 2.75 6.76547 2.75 5.85679Z" fill="white"/>
<path d="M6.3291 17.6646L7.3291 15.6646L8.67074 16.3354L7.67074 18.3354L6.3291 17.6646Z" fill="white"/>
<path d="M10.8291 17.6646L11.8291 15.6646L13.1707 16.3354L12.1707 18.3354L10.8291 17.6646Z" fill="white"/>
<path d="M15.3291 17.6646L16.3291 15.6646L17.6707 16.3354L16.6707 18.3354L15.3291 17.6646Z" fill="white"/>
<path d="M7.3291 21.6646L8.3291 19.6646L9.67074 20.3354L8.67074 22.3354L7.3291 21.6646Z" fill="white"/>
<path d="M11.8291 21.6646L12.8291 19.6646L14.1707 20.3354L13.1707 22.3354L11.8291 21.6646Z" fill="white"/>
</svg>
