<svg width="43" height="44" viewBox="0 0 43 44" fill="none" xmlns="http://www.w3.org/2000/svg">
<path fill-rule="evenodd" clip-rule="evenodd" d="M20 12V17.7561C18.2522 18.3738 17 20.0407 17 22C17 24.4853 19.0147 26.5 21.5 26.5C22.1947 26.5 22.8527 26.3426 23.4401 26.0614L26.4393 29.0607L28.5607 26.9393L25.5614 23.9401C25.8426 23.3527 26 22.6947 26 22C26 20.0407 24.7478 18.3738 23 17.7561V12H20ZM20 22C20 21.1716 20.6716 20.5 21.5 20.5C22.3284 20.5 23 21.1716 23 22C23 22.8284 22.3284 23.5 21.5 23.5C20.6716 23.5 20 22.8284 20 22Z" fill="#3B5EAB"/>
<path fill-rule="evenodd" clip-rule="evenodd" d="M21.5 0.5C9.62588 0.5 0 10.1259 0 22C0 33.8741 9.62588 43.5 21.5 43.5C33.3741 43.5 43 33.8741 43 22C43 10.1259 33.3741 0.5 21.5 0.5ZM3 22C3 11.7827 11.2827 3.5 21.5 3.5C31.7173 3.5 40 11.7827 40 22C40 32.2173 31.7173 40.5 21.5 40.5C11.2827 40.5 3 32.2173 3 22Z" fill="#3B5EAB"/>
</svg>
