<svg width="25" height="25" viewBox="0 0 25 25" fill="none" xmlns="http://www.w3.org/2000/svg">
<path d="M3.25 14.75C3.25 9.64137 7.39137 5.5 12.5 5.5C17.6086 5.5 21.75 9.64137 21.75 14.75H23.25C23.25 8.81294 18.4371 4 12.5 4C6.56294 4 1.75 8.81294 1.75 14.75H3.25Z" fill="#3A3A3A"/>
<path fill-rule="evenodd" clip-rule="evenodd" d="M13.25 8.75V14.075C14.9617 14.4225 16.25 15.9358 16.25 17.75C16.25 19.8211 14.5711 21.5 12.5 21.5C10.4289 21.5 8.75 19.8211 8.75 17.75C8.75 15.9358 10.0383 14.4225 11.75 14.075V8.75H13.25ZM12.5 15.5C11.2574 15.5 10.25 16.5074 10.25 17.75C10.25 18.9926 11.2574 20 12.5 20C13.7426 20 14.75 18.9926 14.75 17.75C14.75 16.5074 13.7426 15.5 12.5 15.5Z" fill="#3A3A3A"/>
</svg>
