<svg width="24" height="24" viewBox="0 0 24 24" fill="none" xmlns="http://www.w3.org/2000/svg">
<path d="M8 6.75H5V5.25H8V6.75Z" fill="#161616"/>
<path fill-rule="evenodd" clip-rule="evenodd" d="M1.25 3C1.25 2.58579 1.58579 2.25 2 2.25H22C22.4142 2.25 22.75 2.58579 22.75 3V13C22.75 13.4142 22.4142 13.75 22 13.75H15C14.8011 13.75 14.6103 13.671 14.4697 13.5303L12 11.0607L9.53033 13.5303C9.38968 13.671 9.19891 13.75 9 13.75H2C1.58579 13.75 1.25 13.4142 1.25 13V3ZM2.75 3.75V12.25H8.68934L11.4697 9.46967C11.7626 9.17678 12.2374 9.17678 12.5303 9.46967L15.3107 12.25H21.25V3.75H2.75Z" fill="#161616"/>
<path d="M21.3061 14.7148C21.03 15.3881 20.345 16.0869 19.2322 16.6955C18.1324 17.297 16.6853 17.7699 15.0158 18.0294L15.2462 19.5116C17.0481 19.2315 18.6686 18.7134 19.952 18.0116C21.2224 17.3168 22.2362 16.3999 22.6939 15.284L21.3061 14.7148Z" fill="#161616"/>
<path d="M9.55266 17.5324L10.1745 18.1481C8.41076 17.9614 6.82189 17.5309 5.55269 16.9732C3.92025 16.2559 2.97058 15.3989 2.69526 14.7182L1.30469 15.2806C1.80648 16.5213 3.21807 17.5857 4.94924 18.3465C6.45184 19.0067 8.31389 19.4922 10.3546 19.6725L9.55266 20.4664L10.608 21.5324L13.1666 18.9994L10.608 16.4664L9.55266 17.5324Z" fill="#161616"/>
</svg>
