<svg width="176" height="40" viewBox="0 0 176 40" fill="none" xmlns="http://www.w3.org/2000/svg">
<g clip-path="url(#clip0_698_4984)">
<path d="M167.603 36.3097L168.226 35.2335C168.789 35.6118 169.407 35.9071 170.073 36.117C170.739 36.3293 171.374 36.4342 171.984 36.4342C172.711 36.4342 173.302 36.2878 173.751 35.9876C174.2 35.6899 174.424 35.3043 174.424 34.8406C174.424 34.3769 174.217 34.023 173.807 33.7985C173.397 33.5691 172.75 33.4446 171.869 33.4178C170.373 33.3983 169.351 33.225 168.792 32.9004C168.235 32.5734 167.955 32.0316 167.955 31.2775C167.955 30.5722 168.26 30.006 168.872 29.5765C169.482 29.147 170.305 28.9346 171.335 28.9346C172.04 28.9346 172.721 29.0323 173.387 29.2324C174.049 29.4325 174.69 29.7278 175.303 30.1183L174.661 31.1848C174.149 30.8407 173.6 30.5722 173.009 30.3818C172.421 30.1939 171.857 30.0987 171.32 30.0987C170.698 30.0987 170.197 30.2061 169.822 30.4233C169.443 30.643 169.255 30.9285 169.255 31.2799C169.255 31.6314 169.446 31.9023 169.827 32.056C170.207 32.2098 170.869 32.2854 171.811 32.2854C173.119 32.2854 174.102 32.5051 174.769 32.9468C175.435 33.3885 175.769 34.045 175.769 34.9187C175.769 35.6923 175.432 36.3366 174.756 36.8515C174.08 37.364 173.204 37.6178 172.13 37.6178C171.332 37.6178 170.546 37.5031 169.758 37.2762C168.975 37.0492 168.255 36.7295 167.603 36.3122M156.497 33.7717V37.3567H155.208V29.1714H160.86C161.7 29.1714 162.356 29.3739 162.827 29.779C163.303 30.1817 163.54 30.7406 163.54 31.4581C163.54 32.0414 163.352 32.5465 162.979 32.9712C162.605 33.3983 162.117 33.6594 161.512 33.7546L163.789 37.3591H162.395L160.072 33.7741H156.497V33.7717ZM156.497 32.5709H160.858C161.3 32.5709 161.639 32.4758 161.871 32.283C162.102 32.0902 162.222 31.8144 162.222 31.4557C162.222 31.0969 162.105 30.8236 161.871 30.6332C161.639 30.4453 161.3 30.3501 160.858 30.3501H156.497V32.5709ZM142.859 37.3567V29.1518H150.557V30.3526H144.148V32.4026H148.355V33.5837H144.148V36.178H150.913V37.3591H142.857L142.859 37.3567ZM134.393 37.3567V30.2964H130.933V29.1518H139.143V30.2964H135.672V37.3567H134.393ZM120.827 33.7717V37.3567H119.538V29.1518H125.508C126.354 29.1518 127.011 29.352 127.482 29.7522C127.951 30.1524 128.187 30.7162 128.187 31.4386C128.187 32.1609 127.955 32.6856 127.484 33.1201C127.018 33.5569 126.403 33.7717 125.642 33.7717H120.827ZM120.827 32.5709H125.508C125.944 32.5709 126.279 32.4758 126.511 32.283C126.742 32.0902 126.862 31.8144 126.862 31.4557C126.862 31.0969 126.75 30.8333 126.525 30.6381C126.303 30.4453 125.981 30.3501 125.564 30.3501H120.827V32.5709ZM109.947 37.6154C108.488 37.6154 107.287 37.203 106.345 36.3756C105.403 35.5483 104.932 34.5136 104.932 33.264C104.932 32.0145 105.401 30.9724 106.34 30.1549C107.277 29.3373 108.483 28.9322 109.947 28.9322C111.411 28.9322 112.637 29.3398 113.574 30.1524C114.511 30.9651 114.982 32.0023 114.982 33.264C114.982 34.5258 114.508 35.5605 113.569 36.383C112.627 37.2054 111.421 37.6154 109.947 37.6154ZM109.947 36.4147C111.043 36.4147 111.939 36.1194 112.629 35.5264C113.322 34.9333 113.666 34.1792 113.666 33.264C113.666 32.3489 113.32 31.6021 112.624 31.0042C111.929 30.4111 111.038 30.111 109.947 30.111C108.856 30.111 107.97 30.4062 107.28 30.9993C106.592 31.5923 106.247 32.3464 106.247 33.2616C106.247 34.1768 106.592 34.9309 107.28 35.5239C107.968 36.117 108.856 36.4122 109.947 36.4122V36.4147ZM101.03 35.3506C100.564 36.0852 99.951 36.649 99.1896 37.037C98.433 37.425 97.5691 37.6178 96.6027 37.6178C95.1604 37.6178 93.9718 37.2103 93.0396 36.3952C92.1073 35.5776 91.6436 34.5428 91.6436 33.286C91.6436 32.0292 92.1098 30.9895 93.0396 30.1671C93.9718 29.3446 95.1579 28.9346 96.6027 28.9346C97.4983 28.9346 98.311 29.103 99.0431 29.4398C99.7753 29.7742 100.361 30.2501 100.81 30.8626L99.7899 31.5752C99.4531 31.1091 99.0065 30.7479 98.4526 30.4965C97.8986 30.2452 97.2811 30.1158 96.6027 30.1158C95.5508 30.1158 94.6796 30.4136 93.9914 31.0139C93.3032 31.6143 92.959 32.3659 92.959 33.2665C92.959 34.167 93.3032 34.9187 93.9963 35.519C94.6893 36.1194 95.5581 36.4171 96.6027 36.4171C97.3299 36.4171 97.9767 36.2731 98.5355 35.9852C99.0895 35.6972 99.5825 35.2506 100.005 34.6405L101.032 35.3531L101.03 35.3506ZM85.7621 37.3567V29.1299H87.0677V37.3567H85.7621ZM74.453 37.3567V29.1518H75.7415V36.178H81.8329V37.3591H74.453V37.3567ZM62.1237 37.3567V29.1518H69.8209V30.3526H63.4123V32.4026H67.6196V33.5837H63.4123V36.178H70.1773V37.3591H62.1213L62.1237 37.3567ZM49.8433 33.5423V37.3567H48.5547V29.1518H49.8433V32.344H55.6052V29.1518H56.884V37.3567H55.6052V33.5423H49.8433Z" fill="white"/>
<path d="M154.889 24.0219V12.3125H167.579C168.214 12.3125 168.765 12.1856 169.231 11.9342C169.697 11.6829 169.932 11.2753 169.932 10.7164C169.932 10.1576 169.697 9.72318 169.231 9.46937C168.765 9.218 168.214 9.09109 167.579 9.09109H154.889V4.83247H168.448C169.363 4.83247 170.212 4.9545 170.998 5.1961C171.782 5.43771 172.465 5.78914 173.043 6.24551C173.622 6.70431 174.093 7.27294 174.459 7.95384C174.822 8.63473 175.062 9.41568 175.174 10.2942V11.1069C175.005 12.9007 174.295 14.2576 173.046 15.1825C171.794 16.1074 170.095 16.5687 167.948 16.5687L175.259 24.0195H168.956L161.449 16.5687H160.048V24.0195H154.894L154.889 24.0219Z" fill="white"/>
<path d="M153.527 4.83498H135.206V9.0936H153.527V4.83498Z" fill="white"/>
<path d="M135.206 24.022V12.3126H153.527V16.5712H140.36V19.7658H153.527V24.022H135.206Z" fill="white"/>
<path d="M133.757 9.09122H126.194V24.022H121.04V9.09122H113.477V4.83504H133.757V9.09122Z" fill="white"/>
<path d="M98.0166 24.022H92.8623V4.83498H98.0166V12.3126H98.185L106.673 4.83498H113.313L103.115 14.4431L113.284 24.022H106.646L98.185 16.5712H98.0166V24.022Z" fill="white"/>
<path d="M91.4124 4.83498H73.0918V9.0936H91.4124V4.83498Z" fill="white"/>
<path d="M73.0918 24.022V12.3126H91.4124V16.5712H78.2461V19.7658H91.4124V24.022H73.0918Z" fill="white"/>
<path d="M47.0078 4.83498L51.8814 19.3729L54.2389 12.3028H59.7934L62.19 19.3729L67.0368 4.83498H72.1642L65.6652 24.022H58.744L56.9235 18.7554L55.3567 24.022H48.4648L41.9365 4.83498H47.0078Z" fill="white"/>
<path d="M24.4844 27.0335L21.7315 28.2733L21.7803 15.3412H10.7323L10.7567 28.0756L7.93065 26.8163L7.90137 5.3304L10.7323 6.597V12.5103H21.7803L21.7754 6.62385L24.6601 5.32552L24.4844 27.0335Z" stroke="white" stroke-width="1.80595" stroke-miterlimit="22.93"/>
<path d="M24.4844 27.0335L21.7315 28.2733L21.7803 15.3412H10.7348L10.7592 28.0756L7.93065 26.8163L7.90137 5.3304L10.7348 6.59456V12.5078H21.7803L21.7779 6.62385L24.6601 5.32552L24.4844 27.0335Z" fill="white"/>
<path d="M4.90535 2.86789V28.9931L16.2609 33.979L27.6505 28.9858L27.6749 2.93378L30.1179 1.8673L32.5632 0.798371L32.5339 30.5868V32.1853L31.0696 32.8271L17.237 38.8917L16.2609 39.3188L15.2847 38.8917L1.47648 32.8295L0 32.1804V30.5868V0.681229L4.90535 2.86789Z" fill="white"/>
<path d="M18.491 18.3918H14.0713V34.4159H18.491V18.3918Z" stroke="white" stroke-width="0.495416" stroke-miterlimit="22.93"/>
<path d="M18.491 18.3918H14.0713V34.4159H18.491V18.3918Z" fill="white"/>
</g>
<defs>
<clipPath id="clip0_698_4984">
<rect width="175.77" height="38.6375" fill="white" transform="translate(0 0.681229)"/>
</clipPath>
</defs>
</svg>
