<svg width="24" height="24" viewBox="0 0 24 24" fill="none" xmlns="http://www.w3.org/2000/svg">
<path d="M5.85487 7.27948C3.23558 7.80183 1.25 10.0815 1.25 12.8338C1.25 15.9986 3.89168 17.9191 6.63197 18.5257C9.36519 19.1307 12.6681 18.5491 14.3414 16.2218C14.3548 16.2032 14.3673 16.184 14.3789 16.1643C15.4568 14.3319 14.0142 12.0838 12 12.0838C10.4931 12.0838 9.25 13.2884 9.25 14.8006H10.75C10.75 14.1404 11.2977 13.5838 12 13.5838C12.9231 13.5838 13.5211 14.6145 13.1016 15.3762C11.9064 17.0027 9.35965 17.5932 6.95617 17.0612C4.54501 16.5274 2.75 14.9846 2.75 12.8338C2.75 10.6784 4.42536 8.88857 6.5903 8.68598C6.72494 8.67338 6.86159 8.66692 7 8.66692C7.96098 8.66692 8.84451 8.97872 9.55481 9.50352L10.4462 8.29708C9.58926 7.66397 8.54708 7.26147 7.41651 7.18158C7.96416 5.21089 9.80167 3.75 12 3.75C14.6353 3.75 16.75 5.84753 16.75 8.40861C16.75 8.55148 16.7435 8.69267 16.7307 8.83191C16.643 9.78913 16.2599 10.6639 15.6685 11.3681L16.8172 12.3328C17.4455 11.5846 17.8988 10.6859 18.1125 9.69893C19.9004 9.98609 21.25 11.5098 21.25 13.3255C21.25 15.3435 19.583 17.0008 17.5 17.0008V18.5008C20.3876 18.5008 22.75 16.1955 22.75 13.3255C22.75 10.7073 20.7839 8.5591 18.2466 8.20235C18.1361 4.88557 15.3703 2.25 12 2.25C8.94864 2.25 6.39441 4.40895 5.85487 7.27948Z" fill="white"/>
<path d="M14.3108 19.8432C14.4041 19.7819 14.5075 19.75 14.6156 19.75C14.9107 19.75 15.2502 20.0281 15.2502 20.5C15.2502 20.9719 14.9107 21.25 14.6156 21.25C14.5476 21.25 14.4831 21.2375 14.4223 21.2142L13.8859 22.6151C14.1138 22.7023 14.36 22.75 14.6156 22.75C15.85 22.75 16.7502 21.685 16.7502 20.5C16.7502 19.315 15.85 18.25 14.6156 18.25C14.1848 18.25 13.7852 18.3851 13.4538 18.6119C13.4453 18.6176 13.437 18.6236 13.4288 18.6297C12.452 19.3584 10.6078 20.3112 8.52786 20.5562L8.70334 22.0459C11.0824 21.7657 13.162 20.6959 14.3108 19.8432Z" fill="white"/>
<path d="M4.33741 19.8779C4.88554 20.1537 5.44306 20.3423 6.00089 20.4597L5.69188 21.9275C5.01327 21.7847 4.3323 21.5546 3.66309 21.2178L4.33741 19.8779Z" fill="white"/>
<path d="M19 20.25V21.75H21V20.25H19Z" fill="white"/>
</svg>
