<svg width="25" height="25" viewBox="0 0 25 25" fill="none" xmlns="http://www.w3.org/2000/svg">
<path d="M12.77 2.31877C7.24717 2.31877 2.77002 6.79592 2.77002 12.3188C2.77002 17.8416 7.24717 22.3188 12.77 22.3188C18.2929 22.3188 22.77 17.8416 22.77 12.3188C22.77 6.79592 18.2929 2.31877 12.77 2.31877Z" stroke="white" stroke-width="2" stroke-linecap="round" stroke-linejoin="round"/>
<path d="M5.04102 18.6645C5.04102 18.6645 7.27004 15.8188 12.77 15.8188C18.27 15.8188 20.4991 18.6645 20.4991 18.6645" stroke="white" stroke-width="2" stroke-linecap="round" stroke-linejoin="round"/>
<path d="M12.77 12.3188C14.4269 12.3188 15.77 10.9756 15.77 9.31877C15.77 7.66192 14.4269 6.31877 12.77 6.31877C11.1132 6.31877 9.77002 7.66192 9.77002 9.31877C9.77002 10.9756 11.1132 12.3188 12.77 12.3188Z" stroke="white" stroke-width="2" stroke-linecap="round" stroke-linejoin="round"/>
</svg>
